<?xml version="1.0" encoding="utf-8"?>
<!-- Generator: Adobe Illustrator 22.0.1, SVG Export Plug-In . SVG Version: 6.00 Build 0)  -->
<svg version="1.1" id="Laag_1" xmlns="http://www.w3.org/2000/svg" xmlns:xlink="http://www.w3.org/1999/xlink" x="0px" y="0px"
	 viewBox="0 0 874.6 149.8" style="enable-background:new 0 0 874.6 149.8;" xml:space="preserve">
<style type="text/css">
	.st0{fill:#1A2930;}
	.st1{fill:#1D2731;}
</style>
<g>
	<path class="st0" d="M136.3,74.6c0,10.6-1.8,20.3-5.3,29.2c-3.5,8.9-8.5,16.5-14.9,22.9c-6.4,6.4-14.1,11.4-23.1,14.9
		c-9,3.5-19,5.3-30,5.3H7.9V2.3H63c11,0,21,1.8,30,5.3c9,3.6,16.7,8.5,23.1,14.9c6.4,6.4,11.4,14,14.9,22.8
		C134.5,54.3,136.3,64,136.3,74.6z M108.7,74.6c0-7.9-1-15-3.1-21.4c-2.1-6.3-5.1-11.6-9.1-16c-4-4.4-8.8-7.7-14.4-10
		c-5.6-2.3-12-3.5-19-3.5H34.9v101.8H63c7.1,0,13.4-1.2,19-3.5c5.6-2.3,10.4-5.7,14.4-10c4-4.4,7-9.7,9.1-16S108.7,82.6,108.7,74.6z
		"/>
	<path class="st0" d="M218.2,125.2c5.2,0,9.9-0.9,14-2.6c4.1-1.7,7.5-4.2,10.4-7.3c2.8-3.1,4.9-6.9,6.4-11.4c1.5-4.5,2.3-9.5,2.3-15
		V2.3h26.9v86.6c0,8.6-1.4,16.5-4.2,23.8c-2.8,7.3-6.7,13.6-11.9,18.9c-5.2,5.3-11.4,9.4-18.9,12.4c-7.4,3-15.7,4.4-25,4.4
		c-9.3,0-17.7-1.5-25.1-4.4c-7.4-3-13.7-7.1-18.9-12.4c-5.2-5.3-9.1-11.6-11.9-18.9c-2.8-7.3-4.2-15.3-4.2-23.8V2.3h26.9v86.5
		c0,5.5,0.8,10.5,2.3,15c1.5,4.5,3.7,8.3,6.5,11.4c2.8,3.2,6.3,5.6,10.4,7.4C208.4,124.4,213,125.2,218.2,125.2z"/>
	<path class="st0" d="M428.8,146.9H408c-2.3,0-4.2-0.6-5.7-1.8c-1.5-1.2-2.6-2.6-3.3-4.3l-10.8-29.5h-59.9l-10.8,29.5
		c-0.5,1.5-1.6,2.9-3.1,4.2c-1.5,1.3-3.4,1.9-5.7,1.9h-21L344.6,2.3H372L428.8,146.9z M381.3,92.3l-17.6-48.1
		c-0.9-2.1-1.8-4.7-2.7-7.6c-0.9-2.9-1.9-6.1-2.8-9.5c-0.9,3.4-1.8,6.6-2.7,9.5c-0.9,3-1.8,5.5-2.7,7.8l-17.5,47.9H381.3z"/>
	<path class="st0" d="M528.5,124.7v22.2h-84.7V2.3h26.9v122.4H528.5z"/>
	<path class="st0" d="M635.8,5.4c8.1,0,15.1,0.8,21,2.4c5.9,1.6,10.8,3.9,14.7,7c3.9,3.1,6.7,6.9,8.6,11.3c1.9,4.5,2.8,9.5,2.8,15.2
		c0,3.7-0.7,7.3-2,10.8c-1.3,3.5-3.2,6.7-5.6,9.6c-2.4,2.9-5.4,5.5-9,7.6c-3.6,2.2-7.7,3.8-12.3,5c11.1,1.6,19.7,5.3,25.6,11
		c6,5.8,9,13.4,9,22.8c0,6-1.1,11.4-3.2,16.2c-2.1,4.8-5.2,8.9-9.3,12.2c-4.1,3.3-9.1,5.9-15,7.6c-5.9,1.8-12.7,2.7-20.2,2.7h-45.9
		V5.4H635.8z M605.4,13.5v58.1H636c6.5,0,12.1-0.8,16.8-2.5c4.6-1.7,8.4-3.9,11.4-6.6c3-2.7,5.1-5.8,6.5-9.3c1.4-3.5,2.1-7,2.1-10.7
		c0-9.5-3-16.8-9-21.6c-6-4.9-15.3-7.4-28-7.4H605.4z M640.9,138.7c12.4,0,21.8-2.7,28.1-8c6.4-5.4,9.6-12.9,9.6-22.7
		c0-4.5-0.9-8.5-2.6-12c-1.7-3.6-4.1-6.6-7.3-9.1s-7.1-4.4-11.8-5.8c-4.7-1.3-10-2-15.9-2h-35.6v59.6H640.9z"/>
	<path class="st0" d="M731.8,146.9h-10.3V5.4h10.3V146.9z"/>
	<path class="st0" d="M865.6,14.1h-49.7v132.8h-10.3V14.1h-50V5.4h110V14.1z"/>
</g>
<rect x="461.6" y="429.2" class="st1" width="2" height="3.7"/>
<g>
</g>
<g>
</g>
<g>
</g>
<g>
</g>
<g>
</g>
<g>
</g>
<g>
</g>
<g>
</g>
<g>
</g>
<g>
</g>
<g>
</g>
<g>
</g>
<g>
</g>
<g>
</g>
<g>
</g>
</svg>
