<svg id="Laag_1" data-name="Laag 1" xmlns="http://www.w3.org/2000/svg" viewBox="0 0 1322.45 1227.12"><defs><style>.cls-1,.cls-2,.cls-3{fill:#1a2930;}.cls-2{font-size:1089.09px;font-family:Lato-Regular, Lato;}.cls-3{font-size:200px;font-family:Lato-Bold, Lato;}.cls-4,.cls-5,.cls-6,.cls-7{font-weight:700;}.cls-5{letter-spacing:-0.02em;}.cls-6{letter-spacing:0em;}.cls-7{letter-spacing:-0.03em;}.cls-8,.cls-9{font-family:Lato-Light, Lato;}.cls-9{letter-spacing:-0.03em;}.cls-10{fill:#1d2731;}</style></defs><title>DualBitLogoProject - Text + Icoon</title><path class="cls-1" d="M676.7,769.83c-.14-12.14-.15-24.28-.15-36.42s0-24.28.15-36.42c0-.77,0-1.54,0-2.32-27.08.32-78.48.25-105-.08V695L386,694.89q-63.17,0-114.34-20.77t-87.08-60q-35.91-39.24-55.48-95.88T109.63,389.75q0-71.88,19.69-128.5t55.61-95.52q36-38.92,87.17-59.57T386.47,85.55l185.69.13V99.41a22.4,22.4,0,0,0,3.17-.32c-.05,0,.21,8,.22,8.93,0,2.83,0,5.66,0,8.49H579c.49,0,.47,63.17,0,63.17h-2.57c.12,13.56.16,32.06.12,49.18,9.06-.16,20.08-.4,31.68-.64,0-2.06-.16-5.72-.16-6.26-.07-6.16-.08-12.32-.08-18.48s0-12.32.08-18.48c0,1.14,0-7.62.18-7.66,5-.81,10.24.14,15.25.21.56,0,.24,41,.06,50.35,10.8-.21,21.59-.4,31.34-.5,0-12.48.15-23,.34-23H671c-.13-16.4-.15-38.84-.07-57.55-1.28,0-2.57.09-3.85.1-.09,0-.18-6.26-.24-14.43h0c-.28,0-.39-21.56-.35-39.49-.05-18.1.07-40.38.35-40.38h11l0-52.36L386.53.06Q300.51,0,229.41,28T107.65,107.13q-50.69,51.15-78.5,123T1.26,389.68Q1.2,477.34,28.92,549.25t78.33,123.4q50.61,51.48,121.65,79.58T386,780.39l290.84.21C676.73,776.48,676.71,770.76,676.7,769.83Z" transform="translate(-1.26 154.21)"/><text class="cls-2" transform="translate(618.35 934.71)">B</text><path class="cls-1" d="M625.93,345.45v53.86h8.18V345.62Z" transform="translate(-1.26 154.21)"/><rect class="cls-1" x="643.76" y="398.87" width="15.25" height="78.41"/><rect class="cls-1" x="578.42" y="357.49" width="8.71" height="63.17"/><rect class="cls-1" x="592.58" y="686.45" width="28.32" height="93.66"/><rect class="cls-1" x="643.55" y="697.12" width="22" height="69.5"/><rect class="cls-1" x="630.69" y="350.95" width="32.67" height="69.7"/><path class="cls-1" d="M571,74.76V99.44a26.41,26.41,0,0,0,4.35-.35c-.05,0,.21,8,.22,8.93,0,2.71,0,5.42,0,8.13h6.29V74.76Z" transform="translate(-1.26 154.21)"/><rect class="cls-1" x="630.66" y="710.35" width="13.14" height="37.03"/><rect class="cls-1" x="639.41" y="466.4" width="13.07" height="37.03"/><rect class="cls-1" x="652.48" y="536.1" width="6.53" height="28.32"/><rect class="cls-1" x="620.31" y="533.32" width="8.71" height="33.88"/><path class="cls-1" d="M615,271.39v40.8h8.19V271.52Z" transform="translate(-1.26 154.21)"/><path class="cls-1" d="M586.72,197.33V251.2h8.18V197.51Z" transform="translate(-1.26 154.21)"/><path class="cls-1" d="M598.15,427.63c-.16-3.43-.16-22.58,0-28.32h-7.54v4.9c.26.08.1,4,.11,4.47,0,3.59,0,7.19,0,10.78,0,2.72,0,5.45,0,8.17Z" transform="translate(-1.26 154.21)"/><rect class="cls-1" x="602.38" y="318.28" width="23.96" height="15.25"/><rect class="cls-1" x="619.8" y="326.99" width="13.07" height="65.35"/><rect class="cls-1" x="592.22" y="331.35" width="16.69" height="52.28"/><rect class="cls-1" x="659.01" y="239.87" width="6.53" height="76.24"/><rect class="cls-1" x="648.12" y="298.68" width="21.78" height="60.99"/><path class="cls-1" d="M582.36,291v40.8h8.19V291.12Z" transform="translate(-1.26 154.21)"/><path class="cls-1" d="M588.9,304.06v40.8h6V304.19Z" transform="translate(-1.26 154.21)"/><rect class="cls-1" x="600.02" y="625.75" width="9.28" height="70.62"/><rect class="cls-1" x="587.13" y="553.53" width="6.53" height="39.21"/><rect class="cls-1" x="650.3" y="203.37" width="26.14" height="123.62"/><rect class="cls-1" x="574.06" y="250.76" width="10.89" height="91.48"/><polygon class="cls-1" points="571.88 235.51 574.06 235.51 574.06 235.51 571.88 235.51 571.88 235.51"/><rect class="cls-1" x="569.7" y="224.62" width="10.89" height="85.17"/><rect class="cls-1" x="574.06" y="342.24" width="8.49" height="50.1"/><rect class="cls-1" x="569.7" y="774.75" width="21.78" height="75.27"/><text class="cls-3" transform="translate(188.73 1104.8)"><tspan class="cls-4">D</tspan><tspan class="cls-5" x="152.1" y="0">U</tspan><tspan class="cls-6" x="297" y="0">A</tspan><tspan class="cls-7" x="435.9" y="0">L</tspan><tspan class="cls-4" x="533.79" y="0"> </tspan><tspan class="cls-8" x="582.39" y="0">BI</tspan><tspan class="cls-9" x="760.89" y="0">T</tspan></text><rect class="cls-1" x="629.6" y="625.92" width="9.8" height="30.89"/><path class="cls-1" d="M590.79,777.84c19.41-.13,38.82-.14,58.24-.14q14.38,0,28.78,0V577.66H581.86V777.91Z" transform="translate(-1.26 154.21)"/><rect class="cls-1" x="641.93" y="673.33" width="11.79" height="37.03"/><rect class="cls-10" x="674.55" y="931.12" width="2" height="3.69"/><rect class="cls-1" x="608.02" y="635.52" width="9.28" height="70.62"/><rect class="cls-1" x="642.65" y="586.77" width="6.57" height="24.33"/></svg>