<svg id="Laag_1" data-name="Laag 1" xmlns="http://www.w3.org/2000/svg" viewBox="0 0 1264.94 781.37"><defs><style>.cls-1{fill:#f36;}</style></defs><title>DualBitLogoProject - Text + Icoon primary</title><path class="cls-1" d="M676.55,733.41q0-18.21.15-36.42c0-.77,0-1.54,0-2.32-27.08.32-78.48.25-105-.08V695L386,694.89q-63.17,0-114.34-20.77t-87.08-60q-35.91-39.24-55.48-95.88T109.63,389.75q0-71.88,19.69-128.5t55.61-95.52q36-38.92,87.17-59.57T386.47,85.55l182,.13c0-1.49,0-2.63,0-3-.14-12.14-.15-24.28-.15-36.42,0-3.07.54-33.45.59-46.06L386.53.06Q300.51,0,229.41,28T107.65,107.13q-50.69,51.15-78.5,123T1.26,389.68Q1.2,477.34,28.92,549.25t78.33,123.4q50.61,51.48,121.65,79.58T386,780.39l290.84.21c-.09-4.12-.11-9.84-.12-10.77C676.56,757.69,676.55,745.55,676.55,733.41Z" transform="translate(-1.26 0.77)"/><path class="cls-1" d="M1222.91,439.45q-43.29-44.91-129.31-61.25,37-11.44,64.51-29.67t45.47-41.11a166.29,166.29,0,0,0,27-49.28,170.61,170.61,0,0,0,9-55.27q0-47.37-15.8-85.22t-49.26-64Q1141,27.55,1089,13.39T965.1-.77H716.25v194.9c9.24-1.18,18.73-1.06,27.94-.91,17.46.28,34.84.84,52.25,2.35q8.79.77,17.57,1.72c2.45-.19,4.89-.38,7.34-.55V82.54H965.1q87.09,0,128.48,31.86t41.39,101q0,29.42-10.34,54.18a106.68,106.68,0,0,1-31.86,42.21q-21.51,17.43-54.45,27.22t-77.58,9.79h-7.49c.06,11.4.08,22.4.08,24.12,0,12.14,0,24.28-.15,36.42,0-1.18.51,11.87-.16,14.6h37.12q86,0,129.05,35.13t43,95.56q0,31-9.82,56.91a112.84,112.84,0,0,1-30.76,44.64q-21,18.8-53.63,29.12t-77.86,10.35H821.35V599.26c-35.35-5.8-71.68-6.72-105.1,6.2v174H991.77q65.34,0,116.52-16.07T1194.6,718A193.69,193.69,0,0,0,1248,647.73q18.22-40.83,18.25-90.39Q1266.21,484.38,1222.91,439.45Z" transform="translate(-1.26 0.77)"/><path class="cls-1" d="M625.93,345.45v53.86h8.18V345.62Z" transform="translate(-1.26 0.77)"/><rect class="cls-1" x="642.77" y="88.67" width="22.18" height="114.43"/><rect class="cls-1" x="578.26" y="138.3" width="8.71" height="77.3"/><rect class="cls-1" x="594.11" y="559.51" width="28.32" height="93.66"/><rect class="cls-1" x="645.08" y="570.18" width="22" height="69.5"/><rect class="cls-1" x="612.23" y="138.27" width="50.98" height="35.91"/><path class="cls-1" d="M570.81,32.24v1.45a26.53,26.53,0,0,0,4.36-.35s.2,8,.21,8.93c0,2.71,0,5.42,0,8.13h6.28v-17C578.07,33.06,574.44,32.68,570.81,32.24Z" transform="translate(-1.26 0.77)"/><rect class="cls-1" x="632.19" y="583.42" width="22.85" height="56.27"/><rect class="cls-1" x="653.62" y="99.62" width="15.78" height="130.75"/><rect class="cls-1" x="652.82" y="399.6" width="6.53" height="28.32"/><rect class="cls-1" x="620.31" y="379.87" width="8.71" height="33.88"/><path class="cls-1" d="M782.22,348.38v75.55H954.05v-75.3Z" transform="translate(-1.26 0.77)"/><path class="cls-1" d="M586.56,131.58v63.25h10.1V131.78Z" transform="translate(-1.26 0.77)"/><path class="cls-1" d="M598.15,422.41c-.16-2.79-.16-18.42,0-23.1h-7.54v4c.26.06.1,3.24.11,3.64,0,2.93,0,5.87,0,8.8,0,2.22,0,4.44,0,6.66Z" transform="translate(-1.26 0.77)"/><rect class="cls-1" x="602.22" y="99.09" width="23.96" height="15.25"/><rect class="cls-1" x="578.26" y="112.16" width="66.08" height="52.28"/><path class="cls-1" d="M660.12,32.57V96.14h6.53V32.08Z" transform="translate(-1.26 0.77)"/><rect class="cls-1" x="569.55" y="79.48" width="15.75" height="103.77"/><path class="cls-1" d="M605.82,275.89v40.8H614V276Z" transform="translate(-1.26 0.77)"/><path class="cls-1" d="M612.35,294.93v40.79h6V295.06Z" transform="translate(-1.26 0.77)"/><rect class="cls-1" x="601.56" y="498.82" width="9.28" height="70.62"/><rect class="cls-1" x="587.13" y="400.08" width="6.53" height="39.21"/><path class="cls-1" d="M575.17,32.75v89.53h10.89V33.7Q580.62,33.33,575.17,32.75Z" transform="translate(-1.26 0.77)"/><path class="cls-1" d="M570.81,32.24V89.83H581.7V33.36C578.07,33.06,574.44,32.68,570.81,32.24Z" transform="translate(-1.26 0.77)"/><rect class="cls-1" x="571.24" y="647.82" width="21.78" height="75.27"/><rect class="cls-1" x="631.14" y="498.99" width="9.8" height="30.89"/><path class="cls-1" d="M592.52,780.54q29-.15,58.11-.11,14.36,0,28.72,0V619.68H583.61V780.6Z" transform="translate(-1.26 0.77)"/><rect class="cls-1" x="643.46" y="546.39" width="11.79" height="37.03"/><rect class="cls-1" x="674.55" y="777.68" width="3.53" height="3.69"/><rect class="cls-1" x="609.56" y="508.58" width="9.28" height="70.62"/><rect class="cls-1" x="640.32" y="445.32" width="6.57" height="24.33"/><rect class="cls-1" x="662.45" y="508.58" width="7.64" height="115.61"/><rect class="cls-1" x="518.22" y="0.77" width="158.22" height="85.64"/><rect class="cls-1" x="578.26" y="318.68" width="9.22" height="15.85"/><rect class="cls-1" x="578.26" y="330.43" width="5.52" height="47.89"/><rect class="cls-1" x="656.77" y="326.6" width="6.2" height="27.54"/><rect class="cls-1" x="606.2" y="469.66" width="6.03" height="15.85"/><rect class="cls-1" x="604.38" y="138.27" width="16.97" height="52.68"/><rect class="cls-1" x="574.99" y="526.2" width="6.28" height="33.31"/><rect class="cls-1" x="583.86" y="237.53" width="6.53" height="39.21"/><rect class="cls-1" x="581.28" y="15.6" width="95.16" height="114.52"/><rect class="cls-1" x="612.74" y="130.12" width="30.87" height="43"/><path class="cls-1" d="M653.39,195v61.54h10.1V195.22Z" transform="translate(-1.26 0.77)"/><rect class="cls-1" x="640.51" y="301.18" width="6.2" height="16.19"/><rect class="cls-1" x="714.99" y="141.45" width="105.09" height="516.23"/><rect class="cls-1" x="603.91" y="160.43" width="8.32" height="88.1"/><rect class="cls-1" x="630.21" y="151.74" width="13.39" height="74.82"/></svg>