<?xml version="1.0" encoding="utf-8"?>
<!-- Generator: Adobe Illustrator 22.0.1, SVG Export Plug-In . SVG Version: 6.00 Build 0)  -->
<svg version="1.1" id="Laag_1" xmlns="http://www.w3.org/2000/svg" xmlns:xlink="http://www.w3.org/1999/xlink" x="0px" y="0px"
	 viewBox="0 0 1266.6 955.3" style="enable-background:new 0 0 1266.6 955.3;" xml:space="preserve">
<style type="text/css">
	.st0{fill:#1A2930;}
	.st1{fill:#1D2731;}
</style>
<g>
	<path class="st0" d="M676.5,733.4c0-12.1,0-24.3,0.2-36.4c0-0.8,0-1.5,0-2.3c-27.1,0.3-78.5,0.2-105-0.1l0,0.4L386,694.9
		c-42.1,0-80.2-7-114.3-20.8c-34.1-13.8-63.1-33.8-87.1-60c-23.9-26.2-42.4-58.1-55.5-95.9c-13-37.8-19.5-80.6-19.5-128.5
		c0-47.9,6.6-90.8,19.7-128.5c13.1-37.8,31.6-69.6,55.6-95.5c24-25.9,53-45.8,87.2-59.6c34.1-13.8,72.3-20.6,114.4-20.6l182,0.1
		c0-1.5,0-2.6,0-3c-0.1-12.1-0.1-24.3-0.2-36.4c0-3.1,0.5-33.5,0.6-46.1L386.5,0.1C329.2,0,276.8,9.3,229.4,28
		c-47.4,18.7-88,45-121.8,79.1c-33.8,34.1-60,75.1-78.5,123C10.6,278.1,1.3,331.2,1.3,389.7c0,58.4,9.2,111.6,27.7,159.6
		c18.5,47.9,44.6,89.1,78.3,123.4c33.7,34.3,74.3,60.9,121.6,79.6c47.4,18.7,99.7,28.1,157.1,28.2l290.8,0.2
		c-0.1-4.1-0.1-9.8-0.1-10.8C676.6,757.7,676.6,745.5,676.5,733.4z"/>
</g>
<g>
	<path class="st0" d="M1222.9,439.4c-28.9-29.9-72-50.4-129.3-61.3c24.7-7.6,46.2-17.5,64.5-29.7s33.5-25.9,45.5-41.1
		c12-15.3,21-31.7,27-49.3c6-17.6,9-36,9-55.3c0-31.6-5.3-60-15.8-85.2c-10.5-25.2-27-46.5-49.3-64c-22.3-17.4-50.8-30.9-85.5-40.3
		c-34.7-9.4-76-14.2-123.9-14.2H716.3v194.9c9.2-1.2,18.7-1.1,27.9-0.9c17.5,0.3,34.8,0.8,52.3,2.4c5.9,0.5,11.7,1.1,17.6,1.7
		c2.4-0.2,4.9-0.4,7.3-0.6V82.5h143.8c58.1,0,100.9,10.6,128.5,31.9s41.4,54.9,41.4,101c0,19.6-3.5,37.7-10.3,54.2
		c-6.9,16.5-17.5,30.6-31.9,42.2s-32.5,20.7-54.5,27.2c-22,6.5-47.8,9.8-77.6,9.8h-7.5c0.1,11.4,0.1,22.4,0.1,24.1
		c0,12.1,0,24.3-0.2,36.4c0-1.2,0.5,11.9-0.2,14.6h37.1c57.3,0,100.4,11.7,129,35.1c28.7,23.4,43,55.3,43,95.6
		c0,20.7-3.3,39.7-9.8,56.9s-16.8,32.1-30.8,44.6c-14,12.5-31.8,22.2-53.6,29.1c-21.8,6.9-47.7,10.3-77.9,10.3H821.3v-96.4
		c-35.3-5.8-71.7-6.7-105.1,6.2v174h275.5c43.6,0,82.4-5.3,116.5-16.1c34.1-10.7,62.9-25.9,86.3-45.5c23.4-19.6,41.2-43,53.4-70.2
		s18.3-57.4,18.3-90.4C1266.2,508.7,1251.8,469.4,1222.9,439.4z"/>
</g>
<path class="st0" d="M625.9,345.4v53.9h8.2v-53.7C631.1,345.6,628.3,345.5,625.9,345.4z"/>
<rect x="644" y="87.9" class="st0" width="22.2" height="114.4"/>
<rect x="579.5" y="137.5" class="st0" width="8.7" height="77.3"/>
<rect x="595.4" y="558.7" class="st0" width="28.3" height="93.7"/>
<rect x="646.3" y="569.4" class="st0" width="22" height="69.5"/>
<rect x="613.5" y="137.5" class="st0" width="51" height="35.9"/>
<path class="st0" d="M570.8,32.2v1.5c1.5,0,2.9-0.1,4.4-0.4c-0.1,0,0.2,8,0.2,8.9c0,2.7,0,5.4,0,8.1h6.3v-17
	C578.1,33.1,574.4,32.7,570.8,32.2z"/>
<rect x="633.5" y="582.6" class="st0" width="34.1" height="102"/>
<rect x="654.9" y="98.8" class="st0" width="15.8" height="130.8"/>
<rect x="654.1" y="398.8" class="st0" width="6.5" height="28.3"/>
<rect x="621.6" y="379.1" class="st0" width="8.7" height="33.9"/>
<path class="st0" d="M782.2,348.4v75.5h191.6v-75.3C903.7,348.5,837.5,348.4,782.2,348.4z"/>
<path class="st0" d="M586.6,131.6v63.2h10.1v-63C593,131.7,589.5,131.6,586.6,131.6z"/>
<path class="st0" d="M598.1,422.4c-0.2-2.8-0.2-18.4,0-23.1h-7.5v4c0.3,0.1,0.1,3.2,0.1,3.6c0,2.9,0,5.9,0,8.8c0,2.2,0,4.4,0,6.7
	H598.1z"/>
<rect x="603.5" y="98.3" class="st0" width="24" height="15.2"/>
<rect x="579.5" y="111.4" class="st0" width="66.1" height="52.3"/>
<path class="st0" d="M660.1,32.6v63.6h6.5V32.1C664.5,32.2,662.3,32.4,660.1,32.6z"/>
<rect x="570.8" y="78.7" class="st0" width="15.7" height="103.8"/>
<path class="st0" d="M605.8,275.9v40.8h8.2V276C611,276,608.2,275.9,605.8,275.9z"/>
<path class="st0" d="M612.4,294.9v40.8h6v-40.7C616.2,295,614.1,295,612.4,294.9z"/>
<rect x="602.8" y="498" class="st0" width="9.3" height="70.6"/>
<rect x="588.4" y="399.3" class="st0" width="6.5" height="39.2"/>
<path class="st0" d="M575.2,32.7v89.5h10.9V33.7C582.4,33.4,578.8,33.1,575.2,32.7z"/>
<path class="st0" d="M570.8,32.2v57.6h10.9V33.4C578.1,33.1,574.4,32.7,570.8,32.2z"/>
<rect x="572.5" y="647" class="st0" width="21.8" height="75.3"/>
<rect x="632.4" y="498.2" class="st0" width="9.8" height="30.9"/>
<path class="st0" d="M592.5,780.5c19.4-0.1,38.7-0.1,58.1-0.1c9.6,0,19.1,0,28.7,0V619.7h-95.7v160.9
	C586.6,780.6,589.5,780.6,592.5,780.5z"/>
<rect x="644.7" y="545.6" class="st0" width="11.8" height="37"/>
<rect x="675.8" y="776.9" class="st1" width="3.5" height="3.7"/>
<rect x="610.8" y="507.8" class="st0" width="9.3" height="70.6"/>
<rect x="641.6" y="444.6" class="st0" width="6.6" height="24.3"/>
<rect x="663.7" y="507.8" class="st0" width="7.6" height="115.6"/>
<rect x="519.5" class="st0" width="158.2" height="85.6"/>
<rect x="579.5" y="317.9" class="st0" width="9.2" height="15.8"/>
<rect x="579.5" y="329.7" class="st0" width="5.5" height="47.9"/>
<rect x="658" y="325.8" class="st0" width="6.2" height="27.5"/>
<rect x="607.5" y="468.9" class="st0" width="6" height="15.8"/>
<rect x="605.6" y="137.5" class="st0" width="17" height="52.7"/>
<rect x="576.3" y="525.4" class="st0" width="6.3" height="33.3"/>
<rect x="585.1" y="236.8" class="st0" width="6.5" height="39.2"/>
<rect x="582.5" y="14.8" class="st0" width="95.2" height="114.5"/>
<rect x="614" y="129.3" class="st0" width="30.9" height="43"/>
<path class="st0" d="M653.4,195v61.5h10.1v-61.3C659.8,195.1,656.3,195.1,653.4,195z"/>
<rect x="641.8" y="300.4" class="st0" width="6.2" height="16.2"/>
<rect x="716.3" y="140.7" class="st0" width="105.1" height="516.2"/>
<rect x="605.2" y="159.7" class="st0" width="8.3" height="88.1"/>
<rect x="631.5" y="151" class="st0" width="13.4" height="74.8"/>
<g>
	<path class="st0" d="M343.2,883.7c0,10.7-1.7,20.5-5.1,29.3s-8.2,16.3-14.4,22.6c-6.2,6.3-13.6,11.1-22.4,14.5
		c-8.7,3.4-18.3,5.2-28.9,5.2H219V812h53.5c10.5,0,20.2,1.7,28.9,5.1c8.7,3.4,16.1,8.3,22.4,14.6s11,13.8,14.4,22.6
		C341.5,863.2,343.2,872.9,343.2,883.7z M323.3,883.7c0-8.8-1.2-16.7-3.6-23.6c-2.4-6.9-5.8-12.8-10.2-17.6c-4.4-4.8-9.7-8.5-16-11
		c-6.3-2.5-13.3-3.8-21-3.8h-34.1v111.9h34.1c7.7,0,14.7-1.3,21-3.8c6.3-2.5,11.6-6.2,16-11c4.4-4.8,7.8-10.6,10.2-17.5
		C322.1,900.3,323.3,892.5,323.3,883.7z"/>
	<path class="st0" d="M426.4,939.9c5.9,0,11.2-1,15.9-3c4.7-2,8.6-4.8,11.9-8.4c3.2-3.6,5.7-7.9,7.4-12.9s2.5-10.5,2.5-16.5V812
		h19.3v87.1c0,8.3-1.3,15.9-4,23c-2.6,7.1-6.4,13.2-11.3,18.4c-4.9,5.2-10.9,9.2-18,12.1c-7.1,2.9-15,4.4-23.8,4.4
		c-8.8,0-16.7-1.5-23.8-4.4c-7.1-2.9-13.1-7-18-12.1c-4.9-5.2-8.7-11.3-11.3-18.4c-2.6-7.1-4-14.7-4-23V812h19.3v87
		c0,6,0.9,11.5,2.6,16.5c1.7,5,4.2,9.3,7.4,12.9c3.2,3.6,7.2,6.4,11.9,8.5C415.1,938.8,420.5,939.9,426.4,939.9z"/>
	<path class="st0" d="M631.4,955.3h-15c-1.7,0-3.1-0.4-4.2-1.3c-1.1-0.9-1.9-2-2.4-3.3l-13.4-34.6h-64.3l-13.4,34.6
		c-0.4,1.2-1.2,2.3-2.3,3.2c-1.1,0.9-2.5,1.4-4.2,1.4h-15L554.5,812h19.6L631.4,955.3z M591,902.1l-22.5-58.3
		c-0.7-1.7-1.4-3.8-2.1-6c-0.7-2.3-1.4-4.8-2.1-7.4c-1.4,5.4-2.8,9.9-4.3,13.5l-22.5,58.2H591z"/>
	<path class="st0" d="M731.6,939v16.3h-81.3V812h19.3v127H731.6z"/>
	<path class="st0" d="M843.9,812c8.8,0,16.4,0.9,22.8,2.6c6.4,1.7,11.6,4.2,15.7,7.4s7.1,7.1,9,11.8c1.9,4.6,2.9,9.8,2.9,15.6
		c0,3.5-0.5,6.9-1.7,10.2c-1.1,3.2-2.8,6.3-5,9c-2.2,2.8-5,5.3-8.3,7.5c-3.4,2.2-7.3,4.1-11.8,5.5c10.5,2,18.4,5.8,23.8,11.3
		c5.3,5.5,7.9,12.7,7.9,21.7c0,6.1-1.1,11.6-3.3,16.6c-2.2,5-5.5,9.3-9.8,12.9c-4.3,3.6-9.6,6.4-15.9,8.3c-6.3,2-13.4,3-21.4,3
		h-50.6V812H843.9z M817.5,827.3v48.9h25.6c5.5,0,10.2-0.6,14.3-1.8c4-1.2,7.4-2.9,10-5c2.6-2.1,4.6-4.7,5.8-7.8
		c1.3-3,1.9-6.3,1.9-9.9c0-8.5-2.5-14.7-7.6-18.6c-5.1-3.9-12.9-5.8-23.6-5.8H817.5z M848.5,939.9c5.5,0,10.3-0.6,14.3-1.9
		c4-1.3,7.3-3,9.8-5.4c2.6-2.3,4.5-5,5.7-8.2c1.2-3.2,1.8-6.7,1.8-10.5c0-7.4-2.6-13.3-7.9-17.5c-5.3-4.3-13.2-6.5-23.7-6.5h-31
		v49.9H848.5z"/>
	<path class="st0" d="M946.9,955.3h-19.4V812h19.4V955.3z"/>
	<path class="st0" d="M1080.4,828.3H1034v127h-19.3v-127h-46.5V812h112.2V828.3z"/>
</g>
<g>
</g>
<g>
</g>
<g>
</g>
<g>
</g>
<g>
</g>
<g>
</g>
<g>
</g>
<g>
</g>
<g>
</g>
<g>
</g>
<g>
</g>
<g>
</g>
<g>
</g>
<g>
</g>
<g>
</g>
</svg>
