<?xml version="1.0" standalone="no"?>
<!DOCTYPE svg PUBLIC "-//W3C//DTD SVG 20010904//EN"
 "http://www.w3.org/TR/2001/REC-SVG-20010904/DTD/svg10.dtd">
<svg version="1.0" xmlns="http://www.w3.org/2000/svg"
 width="5275.000000pt" height="5275.000000pt" viewBox="0 0 5275.000000 5275.000000"
 preserveAspectRatio="xMidYMid meet">
<metadata>
Created by potrace 1.11, written by Peter Selinger 2001-2013
</metadata>
<g transform="translate(0.000000,5275.000000) scale(0.100000,-0.100000)"
fill="#000000" stroke="none">
<path d="M29810 26403 l0 -16258 5867 1 c3228 1 5985 4 6128 8 253 6 331 9
580 21 224 12 485 29 585 40 25 3 74 7 110 10 36 2 81 6 100 9 19 3 67 8 105
11 39 3 81 8 95 10 14 2 54 6 90 9 36 3 74 8 85 10 11 2 47 7 80 10 33 4 71 9
85 11 14 2 48 6 75 10 28 3 77 10 110 15 56 8 98 14 185 26 19 3 46 7 60 9 14
3 41 7 60 10 19 3 46 7 60 10 14 3 41 7 60 10 19 3 60 10 90 16 30 6 64 12 75
13 11 2 34 6 50 9 17 4 46 9 65 12 65 10 334 66 490 102 85 19 162 36 170 38
37 7 308 76 336 86 17 5 40 11 52 14 26 5 157 41 237 65 33 10 101 30 150 45
252 75 790 261 900 310 17 8 68 28 115 46 88 34 398 165 511 217 35 16 105 49
154 72 50 23 99 46 110 51 32 14 355 182 420 219 33 18 80 45 105 58 448 250
992 620 1344 915 479 403 889 816 1181 1191 17 21 35 44 41 50 22 23 223 294
311 420 94 134 285 436 343 541 18 33 40 71 49 85 10 14 33 54 51 90 19 36 52
97 72 135 21 39 44 84 52 100 7 17 43 91 78 165 122 254 170 367 268 625 105
278 174 490 254 780 38 140 106 422 120 495 2 14 7 36 10 50 3 14 8 37 10 53
3 15 7 35 10 45 4 15 14 66 20 112 3 16 16 93 22 125 2 10 6 35 9 55 3 20 7
45 9 56 2 12 7 45 11 74 4 29 9 62 11 74 2 12 6 46 9 76 3 30 8 64 10 75 2 11
7 47 10 80 3 33 8 80 10 105 11 96 15 138 20 210 3 41 7 95 10 120 26 275 27
1180 1 1445 -2 22 -7 76 -11 120 -3 44 -8 91 -10 105 -2 14 -6 55 -10 92 -3
37 -7 75 -9 85 -2 10 -7 52 -12 93 -4 41 -8 77 -9 80 -1 3 -5 28 -9 55 -8 49
-28 169 -46 270 -8 47 -23 119 -35 175 -3 14 -8 39 -11 55 -3 17 -11 55 -19
85 -8 30 -16 66 -19 80 -4 19 -52 204 -70 265 -1 6 -8 30 -15 55 -17 64 -160
489 -176 525 -8 17 -35 82 -60 145 -64 156 -74 179 -172 379 -298 606 -677
1135 -1168 1626 -218 218 -422 400 -605 540 -36 27 -70 54 -77 60 -27 24 -227
168 -328 236 -60 41 -111 77 -113 81 -2 5 -8 8 -12 8 -5 0 -47 24 -92 53 -449
289 -1098 612 -1653 822 -38 14 -79 30 -90 35 -73 32 -572 199 -770 258 -300
89 -660 188 -755 206 -14 2 -53 12 -87 21 -35 9 -73 18 -85 20 -13 3 -61 13
-108 24 -93 22 -355 77 -410 86 -19 3 -49 10 -67 14 -17 5 -34 7 -37 5 -3 -2
-4 -1 -1 2 2 4 116 44 252 90 288 96 369 125 468 164 11 4 74 29 140 55 160
63 401 164 500 210 44 20 105 48 135 62 76 35 378 186 442 221 29 16 78 42
108 58 30 16 57 31 60 34 3 3 30 18 60 34 49 27 237 138 315 187 58 36 400
263 405 269 3 3 34 25 70 49 36 25 67 47 70 51 3 3 59 45 125 94 66 50 125 95
131 100 6 6 29 25 50 41 90 70 286 236 413 350 73 65 401 393 471 470 173 191
300 344 444 535 47 63 91 121 97 128 42 51 349 522 349 536 0 3 16 30 35 60
19 30 35 59 35 64 0 5 7 15 15 22 9 7 13 15 11 18 -3 3 3 17 13 31 18 26 166
315 214 421 169 367 305 748 413 1159 6 23 83 362 88 386 14 72 36 196 41 230
4 22 8 51 11 65 2 14 6 45 10 70 3 25 7 56 10 70 2 14 7 48 9 76 3 28 7 60 9
71 2 10 7 57 11 104 4 46 9 100 11 119 26 238 26 979 -1 1340 -2 30 -6 95 -9
143 -4 49 -8 103 -11 120 -4 33 -16 149 -20 204 -2 18 -5 48 -8 65 -4 18 -9
60 -13 93 -3 33 -8 68 -10 79 -2 10 -6 44 -10 75 -3 31 -8 58 -9 61 -2 3 -6
29 -10 59 -4 30 -9 63 -11 75 -2 12 -7 37 -10 56 -23 140 -104 518 -144 675
-120 470 -263 879 -465 1330 -33 73 -146 299 -188 375 -16 30 -41 75 -54 99
-51 92 -179 301 -256 416 -75 113 -313 436 -354 480 -10 11 -36 43 -58 70 -22
28 -44 55 -50 60 -6 6 -40 44 -75 85 -88 103 -454 468 -570 570 -52 46 -109
95 -126 111 -25 21 -303 242 -349 277 -186 139 -449 313 -665 441 -85 50 -162
96 -170 101 -8 5 -31 18 -50 28 -19 10 -53 29 -75 42 -234 134 -750 375 -1082
505 -65 25 -129 51 -143 57 -191 79 -964 337 -1091 363 -9 2 -34 8 -55 15 -97
28 -469 125 -514 134 -22 4 -109 24 -245 56 -60 14 -226 49 -258 54 -15 3 -35
7 -45 10 -9 3 -33 7 -52 10 -19 3 -46 8 -60 11 -85 17 -129 25 -160 30 -19 4
-111 19 -205 35 -93 16 -192 32 -220 35 -27 4 -57 8 -65 10 -8 2 -35 7 -60 10
-25 3 -56 8 -70 10 -14 2 -63 9 -110 15 -47 6 -96 13 -110 15 -14 2 -45 6 -70
9 -162 19 -229 28 -255 31 -16 2 -57 7 -90 10 -90 9 -134 13 -200 21 -33 3
-78 8 -100 9 -22 2 -67 6 -100 9 -33 3 -89 8 -125 11 -126 10 -186 15 -245 19
-140 12 -464 31 -710 42 -71 3 -184 8 -250 11 -66 3 -2641 8 -5722 10 l-5603
4 0 -16258z m11023 12774 c170 -8 367 -18 432 -23 33 -2 94 -6 135 -9 112 -7
200 -14 250 -20 25 -3 72 -7 105 -10 109 -9 170 -16 195 -20 14 -2 57 -7 95
-10 39 -4 77 -8 85 -10 8 -2 42 -7 75 -11 33 -3 62 -8 65 -9 3 -2 34 -6 70
-10 36 -3 72 -8 80 -10 8 -2 33 -7 55 -10 23 -3 52 -8 65 -10 14 -3 45 -8 70
-11 25 -3 61 -9 80 -14 19 -5 55 -12 80 -15 25 -3 61 -10 80 -15 19 -5 55 -12
80 -15 24 -4 47 -8 50 -10 3 -2 25 -6 50 -10 25 -4 48 -9 52 -11 3 -2 28 -9
55 -14 74 -15 77 -15 263 -63 1073 -276 1912 -714 2510 -1309 137 -137 242
-253 330 -368 19 -25 38 -49 43 -55 225 -291 463 -729 597 -1100 17 -49 36
-99 41 -110 11 -27 63 -192 89 -285 11 -41 25 -91 30 -110 18 -63 49 -193 65
-275 10 -44 19 -89 21 -100 9 -40 53 -311 59 -355 3 -25 8 -61 10 -80 3 -19 9
-73 14 -120 9 -77 13 -116 26 -275 25 -308 25 -949 0 -1200 -2 -22 -7 -67 -10
-99 -10 -106 -16 -161 -20 -181 -2 -11 -7 -42 -10 -70 -17 -134 -72 -411 -120
-600 -45 -177 -118 -419 -142 -475 -3 -8 -7 -17 -8 -20 -40 -117 -130 -331
-196 -469 -115 -238 -221 -418 -374 -636 -286 -405 -630 -751 -1050 -1057
-121 -89 -439 -298 -452 -298 -3 0 -31 -15 -62 -34 -31 -19 -74 -44 -96 -56
-56 -32 -412 -210 -418 -210 -3 0 -43 -17 -89 -38 -46 -21 -105 -47 -133 -57
-27 -10 -54 -21 -60 -25 -10 -7 -129 -53 -295 -113 -143 -53 -541 -180 -597
-192 -10 -2 -30 -8 -45 -14 -16 -6 -28 -8 -28 -6 0 2 -11 0 -25 -5 -14 -5 -36
-12 -48 -15 -12 -2 -42 -9 -67 -16 -25 -6 -52 -12 -60 -14 -8 -2 -34 -8 -56
-14 -64 -17 -413 -89 -469 -96 -27 -4 -53 -9 -56 -11 -3 -1 -48 -10 -100 -18
-52 -8 -112 -17 -134 -21 -50 -8 -86 -13 -150 -20 -27 -4 -57 -8 -65 -10 -15
-4 -73 -11 -165 -20 -27 -3 -59 -7 -70 -9 -11 -2 -56 -7 -100 -11 -44 -4 -91
-8 -105 -10 -14 -1 -63 -6 -110 -9 -47 -4 -103 -9 -125 -11 -92 -9 -262 -18
-550 -30 -203 -9 -836 -14 -848 -7 -5 2 -1123 6 -2485 7 -1362 2 -2606 4
-2763 4 l-287 1 0 5539 0 5538 3267 -3 c1796 -1 3314 -4 3374 -7z m652 -14221
c220 -4 427 -8 460 -10 33 -2 116 -7 185 -11 69 -3 141 -8 160 -9 19 -2 82 -7
140 -11 58 -3 118 -8 135 -10 16 -2 59 -6 95 -10 36 -3 81 -8 100 -10 19 -2
64 -7 100 -11 36 -3 72 -7 80 -9 8 -1 44 -6 80 -10 36 -4 74 -9 85 -11 11 -1
37 -5 59 -8 121 -17 170 -24 206 -31 14 -3 40 -7 58 -10 141 -22 192 -32 357
-65 55 -11 109 -22 120 -24 11 -2 38 -9 60 -14 22 -6 51 -13 65 -15 14 -3 66
-15 115 -27 50 -12 97 -23 106 -25 35 -7 311 -88 434 -127 547 -172 1101 -431
1520 -711 97 -65 257 -177 265 -187 3 -3 37 -30 75 -60 177 -136 472 -413 635
-595 538 -598 908 -1336 1084 -2156 19 -90 37 -184 41 -209 3 -25 13 -83 20
-130 13 -82 16 -105 30 -235 4 -33 8 -71 10 -85 2 -14 7 -79 11 -145 4 -66 8
-138 10 -160 5 -62 5 -519 0 -620 -8 -172 -17 -320 -21 -345 -3 -23 -8 -66
-20 -200 -3 -30 -7 -66 -10 -80 -4 -26 -9 -60 -21 -145 -3 -27 -8 -57 -9 -67
-2 -9 -7 -38 -11 -65 -5 -26 -9 -50 -9 -53 -1 -3 -5 -27 -10 -55 -5 -27 -10
-52 -10 -55 -9 -42 -26 -120 -29 -135 -2 -11 -12 -51 -21 -90 -9 -38 -18 -78
-20 -87 -46 -218 -215 -715 -325 -953 -40 -88 -140 -287 -170 -340 -130 -230
-288 -471 -397 -605 -6 -8 -28 -35 -48 -60 -57 -71 -97 -118 -145 -174 -64
-74 -352 -361 -437 -435 -190 -168 -456 -363 -688 -507 -465 -287 -1061 -548
-1630 -714 -60 -17 -126 -37 -145 -43 -19 -6 -39 -12 -45 -13 -5 -1 -48 -12
-95 -24 -47 -12 -93 -24 -103 -26 -10 -2 -27 -6 -37 -9 -18 -6 -42 -11 -90
-21 -14 -3 -63 -14 -110 -24 -47 -10 -101 -22 -120 -25 -19 -3 -42 -8 -50 -10
-8 -2 -28 -6 -45 -9 -16 -3 -84 -15 -150 -26 -66 -12 -131 -23 -145 -25 -14
-1 -72 -10 -130 -18 -58 -9 -127 -19 -155 -22 -27 -4 -61 -8 -75 -10 -14 -2
-56 -7 -95 -10 -38 -4 -78 -9 -90 -11 -11 -2 -56 -7 -100 -10 -44 -3 -91 -7
-105 -9 -13 -3 -67 -7 -120 -11 -52 -3 -117 -8 -145 -10 -27 -2 -95 -6 -150
-9 -55 -3 -145 -8 -200 -12 -55 -3 -1802 -7 -3881 -8 l-3782 -3 0 5659 0 5658
62 3 c115 6 6830 0 7231 -6z"/>
<path d="M15637 42624 c-1 -1 -99 -5 -217 -8 -317 -10 -587 -23 -830 -41 -41
-3 -104 -8 -140 -10 -86 -6 -187 -14 -230 -20 -19 -2 -69 -7 -110 -10 -41 -4
-86 -8 -100 -10 -14 -2 -56 -6 -95 -10 -38 -3 -81 -8 -95 -10 -14 -2 -52 -6
-85 -10 -33 -3 -71 -7 -85 -10 -14 -2 -50 -7 -81 -10 -31 -3 -65 -7 -75 -9
-11 -2 -48 -7 -84 -11 -36 -4 -72 -9 -82 -10 -9 -2 -38 -7 -65 -11 -26 -3 -56
-8 -67 -10 -10 -2 -44 -6 -75 -10 -31 -3 -75 -10 -99 -15 -24 -5 -62 -12 -85
-14 -23 -3 -64 -10 -92 -15 -27 -5 -66 -12 -85 -14 -44 -7 -137 -24 -170 -30
-13 -3 -42 -8 -65 -12 -22 -3 -59 -10 -83 -15 -23 -5 -59 -12 -80 -15 -20 -3
-39 -7 -42 -9 -3 -2 -26 -6 -50 -10 -25 -3 -72 -12 -105 -20 -59 -14 -237 -52
-284 -61 -14 -3 -28 -7 -32 -9 -4 -3 -24 -7 -45 -11 -29 -4 -345 -83 -636
-158 -92 -24 -507 -146 -633 -187 -203 -65 -534 -176 -560 -188 -11 -5 -47
-19 -80 -30 -34 -11 -72 -24 -85 -30 -14 -6 -97 -38 -185 -71 -88 -34 -176
-68 -195 -76 -19 -8 -44 -19 -55 -23 -11 -5 -33 -14 -50 -21 -16 -7 -68 -28
-115 -47 -95 -39 -120 -49 -202 -87 -32 -14 -69 -28 -83 -32 -14 -3 -25 -10
-25 -15 0 -5 -5 -9 -12 -9 -6 0 -34 -11 -62 -24 -28 -12 -114 -52 -191 -86
-145 -66 -654 -319 -785 -391 -743 -406 -1304 -765 -1910 -1223 -135 -101
-429 -333 -440 -346 -3 -3 -48 -41 -100 -85 -52 -43 -113 -95 -135 -114 -23
-20 -72 -63 -110 -96 -37 -33 -73 -64 -79 -70 -7 -5 -36 -32 -66 -59 -296
-267 -679 -647 -955 -950 -132 -145 -232 -258 -305 -345 -25 -30 -72 -86 -106
-125 -89 -104 -317 -393 -420 -531 -49 -66 -92 -122 -95 -125 -3 -3 -28 -36
-54 -75 -27 -38 -51 -72 -54 -75 -3 -3 -20 -25 -37 -50 -17 -25 -55 -79 -84
-120 -59 -84 -354 -530 -385 -582 -11 -18 -31 -51 -45 -74 -35 -56 -224 -375
-270 -454 -99 -171 -351 -640 -389 -725 -5 -11 -54 -112 -109 -225 -54 -113
-136 -288 -181 -390 -45 -102 -88 -198 -96 -215 -7 -16 -48 -113 -89 -215 -42
-102 -81 -194 -86 -205 -59 -127 -315 -844 -397 -1110 -56 -183 -134 -441
-138 -459 -2 -10 -9 -33 -15 -51 -6 -18 -12 -41 -14 -51 -2 -10 -15 -59 -29
-109 -23 -81 -84 -317 -92 -355 -2 -8 -15 -60 -29 -115 -22 -89 -77 -328 -90
-395 -2 -14 -11 -57 -20 -95 -8 -39 -17 -82 -19 -95 -3 -14 -13 -61 -22 -105
-9 -44 -18 -89 -19 -100 -2 -11 -6 -33 -9 -50 -4 -16 -8 -41 -11 -55 -4 -27
-24 -132 -30 -166 -2 -12 -7 -39 -10 -60 -3 -22 -8 -50 -11 -64 -9 -47 -15
-85 -54 -345 -22 -143 -43 -282 -46 -310 -7 -64 -15 -133 -20 -165 -2 -14 -6
-50 -10 -80 -3 -30 -8 -71 -10 -90 -3 -19 -7 -57 -10 -85 -11 -102 -15 -141
-20 -185 -3 -25 -8 -70 -10 -100 -14 -151 -21 -237 -30 -340 -2 -30 -7 -98
-10 -150 -4 -52 -8 -120 -10 -150 -32 -462 -40 -751 -40 -1435 1 -537 5 -786
20 -1040 2 -38 6 -117 10 -175 7 -137 15 -274 21 -330 2 -25 6 -83 9 -130 3
-47 8 -101 10 -120 3 -19 7 -69 10 -110 3 -41 7 -91 10 -110 2 -19 7 -64 10
-100 3 -36 13 -126 21 -200 9 -74 18 -153 20 -175 3 -22 9 -74 15 -115 6 -41
12 -91 14 -110 2 -19 6 -48 9 -65 4 -27 18 -123 32 -225 5 -36 10 -74 19 -125
3 -16 8 -48 10 -70 3 -22 7 -47 10 -55 2 -8 7 -33 10 -55 3 -23 7 -50 9 -60 2
-11 7 -40 10 -65 4 -25 11 -65 16 -90 5 -25 16 -85 25 -135 32 -176 81 -413
136 -655 21 -96 41 -184 43 -195 7 -34 65 -268 76 -305 9 -32 67 -246 76 -280
94 -372 370 -1204 525 -1585 7 -16 13 -32 14 -35 1 -3 5 -14 10 -25 4 -11 21
-54 37 -95 16 -41 40 -100 53 -130 13 -30 57 -134 98 -230 184 -430 454 -988
644 -1330 16 -30 43 -77 58 -105 26 -48 226 -394 245 -425 5 -8 55 -89 111
-180 231 -377 432 -672 709 -1045 149 -201 390 -509 414 -530 6 -6 27 -30 46
-55 19 -25 46 -58 61 -75 15 -16 71 -82 124 -145 54 -63 103 -119 109 -125 6
-5 29 -30 50 -55 155 -177 771 -806 927 -945 24 -22 105 -94 179 -160 74 -66
167 -147 205 -180 39 -33 72 -62 75 -65 3 -3 30 -25 60 -50 30 -25 57 -47 60
-50 28 -33 674 -529 779 -600 13 -8 32 -23 43 -32 12 -10 25 -18 29 -18 4 0
14 -7 23 -15 12 -13 448 -306 541 -364 157 -99 270 -168 375 -230 69 -41 142
-85 162 -98 21 -12 40 -23 42 -23 3 0 27 -13 54 -29 68 -40 224 -126 387 -213
103 -56 691 -348 699 -348 3 0 47 -20 98 -44 251 -119 838 -362 1131 -467 296
-107 742 -257 847 -285 8 -2 38 -10 65 -19 234 -69 407 -118 535 -151 30 -8
62 -16 70 -19 45 -12 315 -78 375 -91 39 -9 77 -17 85 -19 8 -2 44 -10 80 -19
36 -8 81 -18 100 -21 19 -3 43 -8 52 -11 9 -3 25 -6 35 -8 10 -3 74 -16 143
-30 69 -14 139 -28 155 -31 17 -2 41 -7 55 -10 30 -6 172 -32 215 -40 17 -2
40 -7 51 -9 12 -2 39 -7 60 -10 79 -13 183 -30 254 -42 19 -3 48 -8 63 -10 63
-8 113 -15 127 -19 8 -2 42 -6 75 -10 33 -3 67 -8 75 -10 8 -2 42 -7 75 -11
33 -3 69 -8 80 -9 42 -6 122 -16 165 -20 25 -3 61 -7 80 -10 40 -5 109 -12
190 -20 30 -4 73 -8 95 -11 22 -2 69 -6 105 -9 36 -3 88 -8 115 -10 28 -3 84
-7 125 -10 41 -3 97 -8 123 -10 26 -3 85 -7 130 -10 45 -2 111 -6 147 -9 36
-3 117 -8 180 -11 63 -2 170 -7 238 -10 289 -14 782 -15 6772 -20 l6285 -6 0
3353 0 3353 -130 2 c-72 1 -146 2 -166 2 l-36 1 -1 2318 c0 1274 -1 2323 -1
2330 -1 9 -40 12 -159 12 l-159 0 -1 -1267 c0 -698 -1 -1276 -1 -1286 -1 -16
-14 -17 -148 -15 l-148 3 0 492 0 493 -35 1 c-43 1 -418 1 -442 0 -17 -1 -18
-45 -18 -771 l0 -770 -235 0 -235 0 0 -770 c0 -423 -3 -770 -7 -771 -11 -1
-321 -1 -363 0 l-35 1 0 1268 0 1267 -74 1 -73 0 0 1062 0 1062 -167 0 -166 0
1 193 c0 105 -1 197 -3 202 -2 7 -73 10 -196 10 l-192 0 0 -1257 c0 -691 -3
-1260 -8 -1264 -4 -4 -74 -8 -155 -8 l-147 -1 0 -1262 c0 -694 -3 -1265 -7
-1269 -4 -4 -115 -8 -245 -8 l-238 -1 0 -567 c0 -373 -3 -568 -10 -569 -5 0
-109 -1 -231 -1 l-221 -1 -1 -961 c0 -528 -1 -975 -1 -993 -1 -25 -5 -31 -16
-27 -8 4 -15 1 -15 -5 0 -9 -1003 -11 -4107 -8 -2260 3 -4160 7 -4223 10 -63
3 -158 8 -210 12 -52 3 -133 7 -180 10 -83 5 -139 9 -270 20 -36 3 -92 8 -125
11 -33 3 -76 7 -95 9 -19 2 -64 7 -100 10 -36 3 -76 8 -90 10 -14 2 -54 7 -90
10 -36 4 -72 8 -80 10 -16 4 -68 12 -140 20 -25 3 -56 7 -70 10 -14 2 -45 7
-70 10 -25 4 -56 8 -70 10 -14 2 -68 11 -120 20 -134 21 -152 24 -180 31 -13
3 -40 7 -60 10 -19 2 -42 6 -50 9 -8 2 -31 7 -50 10 -19 3 -53 10 -75 15 -22
5 -53 11 -70 14 -16 3 -82 17 -145 31 -63 15 -142 32 -175 40 -160 36 -431
107 -620 164 -55 16 -131 39 -168 50 -80 23 -393 128 -422 140 -26 11 -118 45
-125 46 -14 1 -136 49 -145 57 -5 4 -15 8 -21 8 -16 0 -398 159 -554 230 -352
161 -811 402 -1076 565 -18 11 -65 40 -105 64 -137 83 -617 409 -674 458 -5 5
-46 35 -90 68 -44 33 -82 62 -85 65 -3 3 -59 48 -125 101 -100 80 -320 264
-361 304 -6 5 -51 46 -100 90 -179 161 -555 545 -730 745 -21 25 -45 52 -53
60 -31 32 -260 310 -326 395 -38 50 -73 95 -78 100 -129 164 -357 490 -506
725 -29 47 -61 96 -70 110 -17 25 -98 160 -137 228 -359 627 -607 1141 -835
1732 -23 58 -51 132 -64 165 -65 167 -188 526 -259 755 -180 580 -346 1292
-451 1938 -3 17 -7 45 -10 60 -3 16 -7 44 -9 63 -5 33 -10 69 -22 154 -4 22
-8 49 -10 60 -2 11 -6 43 -9 70 -3 28 -8 61 -10 75 -5 28 -10 64 -20 155 -3
33 -8 67 -10 75 -2 8 -7 51 -10 95 -3 44 -8 91 -10 105 -7 39 -13 98 -21 185
-4 44 -8 94 -9 110 -20 229 -27 317 -40 525 -40 628 -48 1447 -20 2130 8 192
16 350 20 400 2 30 7 93 10 140 9 138 15 223 20 260 2 19 7 78 11 130 3 52 7
102 9 110 2 8 6 49 10 90 3 41 8 86 10 100 2 14 6 52 10 85 3 33 7 76 10 95 2
19 7 54 10 78 3 23 7 59 10 80 5 47 15 119 20 152 2 14 6 45 10 70 11 73 14
93 20 140 6 46 31 205 40 250 2 14 11 68 20 120 9 52 27 151 40 220 29 151 34
175 41 220 3 19 8 38 10 41 2 3 6 21 9 40 3 19 15 75 26 124 12 50 23 99 25
111 8 40 125 510 145 584 12 41 33 113 46 160 14 46 26 91 28 100 2 8 27 89
55 180 223 711 473 1334 787 1960 124 247 156 308 235 450 17 30 42 75 56 100
176 314 461 750 706 1080 304 408 570 715 951 1095 223 223 261 259 413 394
114 101 123 109 197 169 39 31 72 60 75 63 7 9 337 266 395 309 1124 820 2339
1384 3740 1737 121 30 231 57 245 60 14 2 54 11 90 19 36 8 85 19 110 24 25 5
56 12 70 15 84 18 446 84 497 90 13 2 42 6 65 10 61 10 77 13 128 19 25 3 54
8 65 10 11 2 47 7 80 11 32 4 68 9 78 11 10 2 45 6 78 9 33 4 69 8 80 10 19 4
108 13 189 20 68 6 175 17 200 20 14 2 70 7 125 10 55 4 118 9 140 10 22 2 96
7 165 10 69 4 145 10 170 13 25 3 1925 6 4223 7 l4177 2 0 -2018 0 -2018 180
2 c114 1 180 -2 181 -8 1 -5 2 -309 3 -675 l1 -665 183 0 182 0 0 416 0 416
166 -1 c91 -1 170 1 175 5 5 3 10 283 11 649 l3 645 173 0 172 0 1 -25 c0 -14
1 -802 1 -1751 l1 -1726 173 -1 174 0 1 36 c0 21 0 560 0 1200 l1 1162 31 1
c18 0 103 1 190 1 l157 1 1 26 c0 14 1 170 2 346 l2 320 354 3 c208 1 357 -2
360 -7 3 -5 6 -275 6 -601 l0 -591 165 1 c91 1 177 1 191 1 l26 -1 1 -1112 c0
-612 1 -1121 1 -1131 1 -16 13 -18 149 -16 l147 2 0 406 0 406 314 5 314 5 0
2235 0 2235 131 0 131 0 2 2696 1 2696 -6285 -1 c-3456 -1 -6285 -2 -6286 -2z"/>
<path d="M24363 32759 c-14 -5 -15 -85 -15 -805 0 -439 1 -806 1 -814 1 -13
23 -15 136 -15 113 0 135 2 136 15 0 8 1 376 2 818 l2 802 -35 1 c-19 0 -75 1
-123 2 -48 1 -95 0 -104 -4z"/>
<path d="M25215 31131 c-3 -2 -5 -386 -5 -852 l0 -848 137 -3 137 -3 -1 -388
c0 -213 3 -390 7 -392 8 -5 107 -8 195 -6 l50 1 -1 843 c-1 463 -2 845 -3 848
0 3 -25 6 -53 6 -29 0 -69 1 -89 2 l-37 1 0 383 c0 210 -1 387 -1 394 -1 8
-40 12 -133 13 -73 0 -148 2 -166 4 -18 1 -35 0 -37 -3z"/>
<path d="M26709 30073 c-1 -51 -1 -581 0 -614 l1 -26 128 1 127 1 2 338 1 337
-129 0 -129 0 -1 -37z"/>
<path d="M24235 29380 l-120 -5 0 -1235 c-1 -679 3 -1237 7 -1240 6 -5 173 -5
214 -1 9 1 12 229 12 884 0 485 1 894 1 909 1 22 5 27 29 26 15 0 48 0 75 1
l47 1 0 330 c0 182 -3 330 -7 331 -41 3 -160 3 -258 -1z"/>
<path d="M27397 29050 c-10 -4 -12 -130 -11 -565 1 -308 2 -565 3 -572 1 -9
35 -12 129 -11 l127 1 0 573 c0 316 -2 574 -5 575 -26 3 -234 3 -243 -1z"/>
<path d="M26049 28225 c0 -5 -1 -321 -1 -701 l-1 -692 -76 0 c-42 0 -83 0 -91
-1 -13 -1 -15 -85 -14 -698 1 -384 2 -702 3 -708 1 -6 69 -10 181 -10 l180 0
1 25 c0 14 1 142 2 285 l2 260 65 1 c36 1 71 2 78 3 10 1 12 228 10 1118 l-3
1118 -45 2 c-148 8 -290 7 -291 -2z"/>
<path d="M27220 25420 c0 -324 3 -590 8 -591 10 -1 233 -1 252 0 13 1 15 71
15 591 l0 590 -137 0 -138 0 0 -590z"/>
<path d="M24483 25175 c0 -734 2 -815 16 -819 9 -2 70 -4 137 -4 l121 1 -1
321 c-1 177 2 328 6 337 5 12 21 15 67 14 l60 -1 0 483 0 483 -203 0 -203 0 0
-815z"/>
<path d="M26704 24101 c-2 -2 -4 -231 -4 -508 l0 -503 33 -1 c17 0 79 -1 137
-2 l105 -2 -1 500 c-1 275 -2 505 -3 510 -1 10 -257 16 -267 6z"/>
<path d="M25276 22764 c0 -219 4 -328 11 -332 9 -6 181 -7 238 -3 6 1 10 117
9 329 l-1 327 -129 3 -129 3 1 -327z"/>
<path d="M26319 21866 c-1 -1 -1 -1245 0 -1271 1 -19 7 -20 193 -18 106 2 198
5 205 7 8 4 11 166 10 643 l-2 638 -202 1 c-112 1 -203 1 -204 0z"/>
<path d="M23979 20706 c-1 -38 -1 -1337 0 -1352 1 -11 238 -13 256 -2 12 7 13
1364 1 1375 -4 4 -63 8 -132 8 l-124 1 -1 -30z"/>
</g>
</svg>
